<svg width="171" height="67" xmlns="http://www.w3.org/2000/svg" stroke="null" preserveAspectRatio="xMidYMid meet" version="1.0">

 <g stroke="null">
  <g stroke="null" id="svg_2">
   <title stroke="null">Moderno - Imóveis</title>
   <path stroke="black" stroke-width="2" fill="#fff" d="m12.29687,67l62,0m-58.55556,0l0,-67l34.44445,0l0,29.77778m-10.33333,37.22222l0,-37.22222l27.55556,0l0,37.22222" id="svg_3"/>
   <path stroke="black" stroke-dasharray="4 8" stroke-width="4" fill="none" d="m22.63021,5.21111l0,59.55555" id="svg_4"/>
   <path stroke="black" stroke-dasharray="4 8" stroke-width="4" fill="none" d="m29.5191,5.21111l0,59.55555" id="svg_5"/>
   <path stroke="black" stroke-dasharray="4 8" stroke-width="4" fill="none" d="m36.40798,5.21111l0,59.55555" id="svg_6"/>
   <path stroke="black" stroke-dasharray="4 8" stroke-width="4" fill="none" d="m43.29687,5.21111l0,22.33333" id="svg_7"/>
   <path stroke="black" stroke-dasharray="4 8" stroke-width="4" fill="none" d="m46.74132,34.98889l0,29.77778" id="svg_8"/>
   <path stroke="black" stroke-dasharray="4 8" stroke-width="4" fill="none" d="m53.63021,34.98889l0,29.77778" id="svg_9"/>
   <path stroke="black" stroke-dasharray="4 8" stroke-width="4" fill="none" d="m60.5191,34.98889l0,29.77778" id="svg_10"/>
  </g>
  <text transform="matrix(0.7477 0 0 1 87.548 0)" stroke="#000" font-style="normal" font-weight="normal" xml:space="preserve" text-anchor="start" font-family="'Quicksand'" font-size="27" id="svg_1" y="29.54546" x="-5.20418" stroke-width="0" fill="#ffffff">Moderno</text>
  <text font-weight="normal" xml:space="preserve" text-anchor="start" font-family="'Quicksand'" font-size="24" id="svg_12" y="57" x="82.6463" stroke-width="0" stroke="#000" fill="#ffffff">Imóveis</text>
 </g>
</svg>